<svg class="animated" id="freepik_stories-bibliophile" xmlns="http://www.w3.org/2000/svg" viewBox="0 0 500 500"
  version="1.1" xmlnsXlink="http://www.w3.org/1999/xlink" xmlnsSvgjs="http://svgjs.com/svgjs">
  <style>
    svg#freepik_stories-bibliophile:not(.animated) .animable {
      opacity: 0;
    }

    svg#freepik_stories-bibliophile.animated #freepik--Floor--inject-2 {
      animation: 1s 1 forwards cubic-bezier(.36, -0.01, .5, 1.38) slideUp;
      animation-delay: 0s;
    }

    svg#freepik_stories-bibliophile.animated #freepik--Shadows--inject-2 {
      animation: 1s 1 forwards cubic-bezier(.36, -0.01, .5, 1.38) slideUp;
      animation-delay: 0s;
    }

    svg#freepik_stories-bibliophile.animated #freepik--book-shelf--inject-2 {
      animation: 1s 1 forwards cubic-bezier(.36, -0.01, .5, 1.38) fadeIn;
      animation-delay: 0s;
    }

    svg#freepik_stories-bibliophile.animated #freepik--books--inject-2 {
      animation: 1s 1 forwards cubic-bezier(.36, -0.01, .5, 1.38) zoomIn;
      animation-delay: 0s;
    }

    svg#freepik_stories-bibliophile.animated #freepik--speach-bubble--inject-2 {
      animation: 1s 1 forwards cubic-bezier(.36, -0.01, .5, 1.38) slideLeft;
      animation-delay: 0s;
    }

    svg#freepik_stories-bibliophile.animated #freepik--Character--inject-2 {
      animation: 1s 1 forwards cubic-bezier(.36, -0.01, .5, 1.38) slideDown;
      animation-delay: 0s;
    }

    @keyframes slideUp {
      0% {
        opacity: 0;
        transform: translateY(30px);
      }

      100% {
        opacity: 1;
        transform: inherit;
      }
    }

    @keyframes fadeIn {
      0% {
        opacity: 0;
      }

      100% {
        opacity: 1;
      }
    }

    @keyframes zoomIn {
      0% {
        opacity: 0;
        transform: scale(0.5);
      }

      100% {
        opacity: 1;
        transform: scale(1);
      }
    }

    @keyframes slideLeft {
      0% {
        opacity: 0;
        transform: translateX(-30px);
      }

      100% {
        opacity: 1;
        transform: translateX(0);
      }
    }

    @keyframes slideDown {
      0% {
        opacity: 0;
        transform: translateY(-30px);
      }

      100% {
        opacity: 1;
        transform: translateY(0);
      }
    }
  </style>
  <g id="freepik--Floor--inject-2" class="animable" style="transform-origin: 249.53px 342.46px;">
    <ellipse id="freepik--floor--inject-2" cx="249.53" cy="342.46" rx="236.06" ry="140.05"
      style="fill: rgb(245, 245, 245); transform-origin: 249.53px 342.46px;" class="animable"></ellipse>
  </g>
  <g id="freepik--Shadows--inject-2" class="animable" style="transform-origin: 237.67px 327.188px;">
    <ellipse id="freepik--Shadow--inject-2" cx="316" cy="367.94" rx="94.34" ry="54.46"
      style="fill: rgb(224, 224, 224); transform-origin: 316px 367.94px;" class="animable"></ellipse>
    <path id="freepik--shadow--inject-2"
      d="M175.08,396.27l-23.84-13.76L131.8,393.73l3.24-9.35-19.43,3.74L138.28,375,65.86,333.22a1.26,1.26,0,0,1,0-2.39l171-98.36a4.6,4.6,0,0,1,4.15,0L350,295.3a1.26,1.26,0,0,1,0,2.39L179.22,396.27A4.58,4.58,0,0,1,175.08,396.27Z"
      style="fill: rgb(224, 224, 224); transform-origin: 207.93px 314.37px;" class="animable"></path>
  </g>
  <g id="freepik--book-shelf--inject-2" class="animable" style="transform-origin: 119.3px 108.405px;">
    <g id="freepik--book-shelf--inject-2" class="animable" style="transform-origin: 119.3px 108.405px;">
      <g id="freepik--Shelf--inject-2" class="animable" style="transform-origin: 119.3px 133.986px;">
        <path
          d="M198.89,116.17V109.7h0A2.2,2.2,0,0,0,197.6,108L158.73,85.53a6.63,6.63,0,0,0-6,0L41,150.05a2.2,2.2,0,0,0-1.29,1.72h0v6.47h0A2.22,2.22,0,0,0,41,160l38.87,22.44a6.61,6.61,0,0,0,6,0L197.6,117.89a2.19,2.19,0,0,0,1.28-1.72Z"
          style="fill: rgb(240, 240, 240); transform-origin: 119.3px 133.986px;" id="elcvc0dl2t6d" class="animable">
        </path>
        <path
          d="M41,153.5l38.87,22.44a6.61,6.61,0,0,0,6,0L197.6,111.42c1.65-1,1.65-2.5,0-3.45L158.73,85.53a6.63,6.63,0,0,0-6,0L41,150.05C39.36,151,39.36,152.54,41,153.5Z"
          style="fill: rgb(250, 250, 250); transform-origin: 119.304px 130.736px;" id="eluxamulyxv" class="animable">
        </path>
        <path
          d="M82.86,176.66v6.47a6.17,6.17,0,0,1-3-.72L41,160a2.18,2.18,0,0,1-1.28-1.72h0v-6.48h0A1.63,1.63,0,0,1,40,151c-.46.84-.12,1.8,1,2.46l38.88,22.44A6,6,0,0,0,82.86,176.66Z"
          style="fill: rgb(224, 224, 224); transform-origin: 61.29px 167.065px;" id="elmnfnyya8lyd" class="animable">
        </path>
      </g>
      <g id="freepik--Books--inject-2" class="animable" style="transform-origin: 116.929px 99.0755px;">
        <polygon points="144.31 34.41 177.13 53.49 177.13 116.31 144.31 97.24 144.31 34.41"
          style="fill: rgb(224, 224, 224); transform-origin: 160.72px 75.36px;" id="elr0ucdlwvu4" class="animable">
        </polygon>
        <path d="M176.07,54.53,144.31,36.19a13.36,13.36,0,0,1-7.27,4l31.5,18.27S170.57,58,176.07,54.53Z"
          style="fill: rgb(255, 255, 255); transform-origin: 156.555px 47.325px;" id="elnz39k9nku3e" class="animable">
        </path>
        <path
          d="M165.49,58.34a6.76,6.76,0,0,0,6.1,0l5.35-3.09c1.69-1,1.69-2.55,0-3.52L145.63,33.65l-1.32.76L175.1,52.3a1.12,1.12,0,0,1,0,2.12l-5,2.83a4.06,4.06,0,0,1-3.67,0L135.68,39.39l-1.5.87Z"
          style="fill: rgb(250, 250, 250); transform-origin: 156.194px 46.3586px;" id="elkic88y82l6" class="animable">
        </path>
        <path
          d="M134.18,40.26v62.82l31.31,18.08a6.76,6.76,0,0,0,6.1,0l5.35-3.09a2.14,2.14,0,0,0,1.26-1.76V53.48a2.14,2.14,0,0,1-1.26,1.77l-5.35,3.09a6.76,6.76,0,0,1-6.1,0Z"
          style="fill: rgb(224, 224, 224); transform-origin: 156.19px 81.0736px;" id="elkdgwgt8c9ph" class="animable">
        </path>
        <path
          d="M168.54,59.07a6.2,6.2,0,0,0,3.05-.73l5.35-3.09a2.14,2.14,0,0,0,1.26-1.77v62.83a2.14,2.14,0,0,1-1.26,1.76l-5.35,3.09a6.31,6.31,0,0,1-3.05.73Z"
          style="fill: rgb(235, 235, 235); transform-origin: 173.37px 87.6854px;" id="el9jed7i6quou" class="animable">
        </path>
        <polygon points="130.88 42.16 163.71 61.24 163.71 124.06 130.88 104.99 130.88 42.16"
          style="fill: rgb(235, 235, 235); transform-origin: 147.295px 83.11px;" id="el9nnupfw4tpp" class="animable">
        </polygon>
        <path d="M162.65,62.28,130.88,43.94a13.36,13.36,0,0,1-7.26,4l31.5,18.26S157.15,65.72,162.65,62.28Z"
          style="fill: rgb(255, 255, 255); transform-origin: 143.135px 55.07px;" id="el4768zu9cd6c" class="animable">
        </path>
        <path
          d="M152.06,66.09a6.78,6.78,0,0,0,6.11,0L163.52,63c1.68-1,1.68-2.55,0-3.52L132.21,41.4l-1.33.76,30.79,17.89a1.12,1.12,0,0,1,0,2.12l-5,2.83A4,4,0,0,1,153,65L122.26,47.15l-1.5.86Z"
          style="fill: rgb(250, 250, 250); transform-origin: 142.77px 54.1086px;" id="el150gev80av4" class="animable">
        </path>
        <path
          d="M120.76,48v62.83l31.3,18.07a6.78,6.78,0,0,0,6.11,0l5.35-3.09a2.13,2.13,0,0,0,1.26-1.76V61.24A2.14,2.14,0,0,1,163.52,63l-5.35,3.09a6.72,6.72,0,0,1-6.11,0Z"
          style="fill: rgb(235, 235, 235); transform-origin: 142.77px 88.8136px;" id="ellvypwfz2j1m" class="animable">
        </path>
        <path
          d="M155.12,66.82a6.2,6.2,0,0,0,3-.73L163.52,63a2.14,2.14,0,0,0,1.26-1.76v62.82a2.13,2.13,0,0,1-1.26,1.76l-5.35,3.09a6.2,6.2,0,0,1-3,.73Z"
          style="fill: rgb(240, 240, 240); transform-origin: 159.95px 95.4403px;" id="el1bv5oqpwrzt" class="animable">
        </path>
        <polygon points="119.97 82.74 119.97 85.93 124.82 88.4 124.82 84.97 119.97 82.74"
          style="fill: rgb(224, 224, 224); transform-origin: 122.395px 85.57px;" id="el2z9ppecsj3p" class="animable">
        </polygon>
        <polygon points="124.15 86.11 117.78 82.94 110.66 87.05 118.9 91.62 124.15 86.11"
          style="fill: rgb(255, 255, 255); transform-origin: 117.405px 87.28px;" id="elqwalidwklfd" class="animable">
        </polygon>
        <path
          d="M114.45,92.71v26.63A3.35,3.35,0,0,0,116,122l25.43,14.68a3.09,3.09,0,0,0,1.24.35L118.9,93.17a3,3,0,0,1-1.23-.35l-1.71-1C115.12,91.35,114.45,91.74,114.45,92.71Z"
          style="fill: rgb(235, 235, 235); transform-origin: 128.56px 114.326px;" id="eltsc3rc4mmz" class="animable">
        </path>
        <path
          d="M120.71,92.82l3.89-4.29,3.45-2c.31-.5.69-.88.49-1.29l23.52,43.39,0,.05c.21.42.26,1.36-.31,1.68l-7.34,6.29a3.28,3.28,0,0,1-1.8.35L118.9,93.17A3.29,3.29,0,0,0,120.71,92.82Z"
          style="fill: rgb(240, 240, 240); transform-origin: 135.553px 111.127px;" id="el8onxp0bmhdd" class="animable">
        </path>
        <path
          d="M128.05,84.78c.84.49.63,1,0,1.75l-7.34,6.29a3.33,3.33,0,0,1-3,0l-6.45-3.73c-.84-.48-1-1.18-.33-1.56a3,3,0,0,1,2.7.19l5.09,3a1.14,1.14,0,0,0,1,0L124.32,86a.31.31,0,0,0,0-.58l-5.16-2.65c-.84-.49-1-1.19-.33-1.56a3,3,0,0,1,2.7.19Z"
          style="fill: rgb(250, 250, 250); transform-origin: 119.559px 87.0764px;" id="el5tn5zx1rw2d" class="animable">
        </path>
        <polygon points="82.1 57.52 118.98 78.95 118.98 149.52 82.1 128.1 82.1 57.52"
          style="fill: rgb(224, 224, 224); transform-origin: 100.54px 103.52px;" id="elp2eilk3q22l" class="animable">
        </polygon>
        <path d="M117.79,80.12,82.1,59.52A14.93,14.93,0,0,1,73.94,64l35.39,20.51S111.61,84,117.79,80.12Z"
          style="fill: rgb(255, 255, 255); transform-origin: 95.865px 72.015px;" id="el1i8t7diamjk" class="animable">
        </path>
        <path
          d="M105.9,84.4a7.6,7.6,0,0,0,6.86,0l6-3.47c1.9-1.09,1.9-2.86,0-4L83.59,56.67l-1.49.85,34.59,20.1a1.25,1.25,0,0,1,0,2.37l-5.58,3.19a4.53,4.53,0,0,1-4.12,0L72.41,63.12l-1.68,1Z"
          style="fill: rgb(250, 250, 250); transform-origin: 95.4575px 70.944px;" id="elrskro3s372h" class="animable">
        </path>
        <path
          d="M70.73,64.09v70.57L105.9,155a7.6,7.6,0,0,0,6.86,0l6-3.47a2.41,2.41,0,0,0,1.41-2V79a2.41,2.41,0,0,1-1.41,2l-6,3.48a7.6,7.6,0,0,1-6.86,0Z"
          style="fill: rgb(224, 224, 224); transform-origin: 95.45px 109.954px;" id="elp6uro79qvel" class="animable">
        </path>
        <path
          d="M109.33,85.22a7.09,7.09,0,0,0,3.43-.81l6-3.48a2.41,2.41,0,0,0,1.41-2v70.57a2.41,2.41,0,0,1-1.41,2l-6,3.47a7.1,7.1,0,0,1-3.43.82Z"
          style="fill: rgb(235, 235, 235); transform-origin: 114.75px 117.36px;" id="elqmvwl9edr2" class="animable">
        </path>
        <polygon points="67.03 66.23 103.9 87.66 103.9 158.23 67.03 136.81 67.03 66.23"
          style="fill: rgb(235, 235, 235); transform-origin: 85.465px 112.23px;" id="eldbrvk9ah3ad" class="animable">
        </polygon>
        <path d="M102.71,88.83,67,68.23a14.94,14.94,0,0,1-8.15,4.49L94.25,93.23S96.53,92.7,102.71,88.83Z"
          style="fill: rgb(255, 255, 255); transform-origin: 80.78px 80.73px;" id="ellsverj0tk4p" class="animable">
        </path>
        <path
          d="M90.82,93.11a7.6,7.6,0,0,0,6.86,0l6-3.47c1.9-1.09,1.9-2.86,0-4L68.52,65.38l-1.5.85,34.59,20.1a1.25,1.25,0,0,1,0,2.37L96,91.89a4.56,4.56,0,0,1-4.12,0L57.34,71.83l-1.69,1Z"
          style="fill: rgb(250, 250, 250); transform-origin: 80.3775px 79.654px;" id="elbaftf5br79p" class="animable">
        </path>
        <path
          d="M55.65,72.8v70.57l35.17,20.31a7.6,7.6,0,0,0,6.86,0l6-3.47a2.41,2.41,0,0,0,1.41-2V87.66a2.41,2.41,0,0,1-1.41,2l-6,3.47a7.54,7.54,0,0,1-6.86,0Z"
          style="fill: rgb(235, 235, 235); transform-origin: 80.37px 118.649px;" id="ele89x56o5264" class="animable">
        </path>
        <path
          d="M94.25,93.93a7,7,0,0,0,3.43-.82l6-3.47a2.41,2.41,0,0,0,1.41-2v70.57a2.41,2.41,0,0,1-1.41,2l-6,3.47a7.1,7.1,0,0,1-3.43.82Z"
          style="fill: rgb(240, 240, 240); transform-origin: 99.67px 126.07px;" id="elhzz6famklzu" class="animable">
        </path>
      </g>
    </g>
  </g>
  <g id="freepik--books--inject-2" class="animable" style="transform-origin: 192.595px 277.306px;">
    <g id="freepik--big-books--inject-2" class="animable" style="transform-origin: 192.595px 277.306px;">
      <path d="M84.78,336.81l2.53-1.46-1.83-.82S84,334.91,84,335a7.19,7.19,0,0,0,.1,1Z"
        style="fill: rgb(22, 72, 125); transform-origin: 85.655px 335.67px;" id="elc0y8ioaicf8" class="animable"></path>
      <g id="el4ykk12a4i18">
        <path d="M84.78,336.81l2.53-1.46-1.83-.82S84,334.91,84,335a7.19,7.19,0,0,0,.1,1Z"
          style="opacity: 0.5; transform-origin: 85.655px 335.67px;" class="animable"></path>
      </g>
      <path d="M181.17,385.37a8.18,8.18,0,0,1-7.4,0l-83.09-48,124.37-71.81,2.91-1.68,83.08,48c2,1.18,2,3.1,0,4.27Z"
        style="fill: rgb(22, 72, 125); transform-origin: 196.61px 325.067px;" id="elwlcp1aw9sne" class="animable">
      </path>
      <path
        d="M150,294.75l-29,16.68L102.24,300.6,80.42,313.21v15.72c0,1.91,2.14,4.62,2.92,4.18a21.4,21.4,0,0,1,4.17,1.48,31.49,31.49,0,0,1,6,4.45l66.57-38.43Z"
        style="fill: rgb(22, 72, 125); transform-origin: 120.25px 316.895px;" id="el4hwnu3dkxn5" class="animable">
      </path>
      <g id="eltziu068j46">
        <path
          d="M150,294.75l-29,16.68L102.24,300.6,80.42,313.21v15.72c0,1.91,2.14,4.62,2.92,4.18a21.4,21.4,0,0,1,4.17,1.48,31.49,31.49,0,0,1,6,4.45l66.57-38.43Z"
          style="opacity: 0.15; transform-origin: 120.25px 316.895px;" class="animable"></path>
      </g>
      <g id="elbaquvfggck8">
        <path
          d="M80.42,328.93c0,1.79,1.87,4.28,2.75,4.22l.08,0,.09,0h0c.06,0,2.64-1.64,2.92-1.68l2.51-8.29s-.15-9.69,0-9.69a40.51,40.51,0,0,0-1.67-4.1l-6.68,3.86Z"
          style="opacity: 0.4; transform-origin: 84.595px 321.271px;" class="animable"></path>
      </g>
      <path
        d="M173.76,385.37l-5-2.91L93.53,339a4.88,4.88,0,0,0-1-2.7,11.09,11.09,0,0,0-3.29-2.89,7.52,7.52,0,0,0-3.55-1.11,3.82,3.82,0,0,0-2.34.77A13,13,0,0,1,82,326.89H79.1c0,3.93,1.3,7.87,2.89,8.78l1.44.84c.81.47,1.46.5,1.46.06v-.77c0-.85,1.29-.81,2.9.12s2.89,2.36,2.89,3.22v.76c0,.45,1.11,1.43,2.47,2.21l72.74,42,7.87,4.54h0a7.73,7.73,0,0,0,3.69.87v-3.29A7.51,7.51,0,0,1,173.76,385.37Z"
        style="fill: rgb(22, 72, 125); transform-origin: 128.275px 358.206px;" id="ela7xsl52rnku" class="animable">
      </path>
      <g id="eledc4i6em2f">
        <path
          d="M173.76,385.37l-5-2.91L93.53,339a4.88,4.88,0,0,0-1-2.7,11.09,11.09,0,0,0-3.29-2.89,7.52,7.52,0,0,0-3.55-1.11,3.82,3.82,0,0,0-2.34.77A13,13,0,0,1,82,326.89H79.1c0,3.93,1.3,7.87,2.89,8.78l1.44.84c.81.47,1.46.5,1.46.06v-.77c0-.85,1.29-.81,2.9.12s2.89,2.36,2.89,3.22v.76c0,.45,1.11,1.43,2.47,2.21l72.74,42,7.87,4.54h0a7.73,7.73,0,0,0,3.69.87v-3.29A7.51,7.51,0,0,1,173.76,385.37Z"
          style="opacity: 0.3; transform-origin: 128.275px 358.206px;" class="animable"></path>
      </g>
      <path
        d="M302.56,314v3.34a2.54,2.54,0,0,1-1.46,2.11l-.06,0L189,384.12l-7.86,4.54h0a7.76,7.76,0,0,1-3.69.87v-3.29a7.47,7.47,0,0,0,3.7-.88l5-2.89h0L301,316.15A2.52,2.52,0,0,0,302.56,314Z"
        style="fill: rgb(22, 72, 125); transform-origin: 240.005px 351.765px;" id="el1i7s9zwg041" class="animable">
      </path>
      <g id="el6enz0s778db">
        <path
          d="M302.56,314v3.34a2.54,2.54,0,0,1-1.46,2.11l-.06,0L189,384.12l-7.86,4.54h0a7.76,7.76,0,0,1-3.69.87v-3.29a7.47,7.47,0,0,0,3.7-.88l5-2.89h0L301,316.15A2.52,2.52,0,0,0,302.56,314Z"
          style="opacity: 0.2; transform-origin: 240.005px 351.765px;" class="animable"></path>
      </g>
      <path d="M177.47,364.08v19.2a4.93,4.93,0,0,1-2.47-.59l-9.11-5.25L96.47,337.35l0-20.05Z"
        style="fill: rgb(235, 235, 235); transform-origin: 136.97px 350.291px;" id="elda7qwyji8k" class="animable">
      </path>
      <g id="elqp02onwvua">
        <path d="M135.1,350.77,154.54,362s-2-2.1-9.72-6.5C137.34,351.23,135.1,350.77,135.1,350.77Z"
          style="opacity: 0.15; transform-origin: 144.82px 356.385px;" class="animable"></path>
      </g>
      <path d="M299,296.33v14.79a5.47,5.47,0,0,1-2.46,4.27L189,377.44l-9.1,5.25a4.92,4.92,0,0,1-2.46.59V366.11Z"
        style="fill: rgb(245, 245, 245); transform-origin: 238.22px 339.806px;" id="eloovukfii1mj" class="animable">
      </path>
      <path d="M92.4,315v17a1.91,1.91,0,0,0-.27-.16,7.34,7.34,0,0,0-3.54-1.12,3.77,3.77,0,0,0-2.33.77v-20Z"
        style="fill: rgb(55, 71, 79); transform-origin: 89.33px 321.745px;" id="el1qwdrk6b9cp" class="animable"></path>
      <path
        d="M96.46,337.36a4.82,4.82,0,0,0-1-2.7,9.38,9.38,0,0,0-1-1.17l-.35-.33-.45-.39-.38-.28a7.83,7.83,0,0,0-.82-.55V315l4,2.35Z"
        style="fill: rgb(224, 224, 224); transform-origin: 94.46px 326.18px;" id="elalkcxdau5ho" class="animable">
      </path>
      <path
        d="M215.05,242.15,90.68,314v1.66c0,.93-1.29,1.27-2.89.35s-2.9-2.08-2.9-3.68l-.16-1.58,126.72-73.15.51-.3a1.66,1.66,0,0,1,.22.77v.77C212.18,239.73,213.46,241.21,215.05,242.15Z"
        style="fill: rgb(22, 72, 125); transform-origin: 149.89px 276.926px;" id="eljn9hl4sg4kf" class="animable">
      </path>
      <g id="elv7at6kocbuh">
        <path
          d="M215.05,242.15,90.68,314v1.66c0,.93-1.29,1.27-2.89.35s-2.9-2.08-2.9-3.68l-.16-1.58,126.72-73.15.51-.3a1.66,1.66,0,0,1,.22.77v.77C212.18,239.73,213.46,241.21,215.05,242.15Z"
          style="opacity: 0.1; transform-origin: 149.89px 276.926px;" class="animable"></path>
      </g>
      <path
        d="M173.77,361.94,92.52,315c-1-.54-2-1-2.37-.77l.53-.29,124.37-71.82,1.46-.83c.8-.47,2.55-.21,3.92.58L301,288.44c2,1.19,2,3.11,0,4.28L181.17,361.94A8.18,8.18,0,0,1,173.77,361.94Z"
        style="fill: rgb(22, 72, 125); transform-origin: 196.325px 301.94px;" id="el1jxn8feyh25" class="animable">
      </path>
      <path
        d="M212,237.27l-.51.3L84.73,310.72a1,1,0,0,0-.27-.34l-.43-.24-.91-.53L82,309a1.14,1.14,0,0,0-1.43.13.45.45,0,0,0-.15.13,2.4,2.4,0,0,0-.38.53,3.57,3.57,0,0,0-.33.71c-.1.26-.18.54-.26.83s-.12.62-.18,1a3.81,3.81,0,0,0-.07.59c0,.15,0,.3,0,.47,0,.35-.05.72-.05,1.11v-3.56c0-2,1.67-4.52,3.71-5.7l119.88-69.22c2.05-1.18,5-1.38,6.6-.47l1.51.88,0,0c.1.07.36.21.64.37a0,0,0,0,1,0,0A1.2,1.2,0,0,1,212,237.27Z"
        style="fill: rgb(22, 72, 125); transform-origin: 145.575px 274.741px;" id="elgicmwo4u1g6" class="animable">
      </path>
      <path
        d="M173.79,362h0l-5-2.91L111,325.69,92.52,315c-1.31-.77-2.38-1-2.45-.65a.09.09,0,0,0,0,.05v.84c0,.92-1.3.92-2.9,0s-2.25-2-2.27-2.91v-.91a1.33,1.33,0,0,0-.43-1.08l-.43-.24-.91-.53L82,309a1.14,1.14,0,0,0-1.43.13.45.45,0,0,0-.15.13,1.42,1.42,0,0,0-.25.34.8.8,0,0,0-.13.19,3.57,3.57,0,0,0-.33.71c-.1.26-.18.54-.26.83s-.12.62-.18,1a3.81,3.81,0,0,0-.07.59c0,.15,0,.3,0,.47,0,.35-.05.72-.05,1.11v12.48H82V314.41c0-.3,0-.6,0-.88l.07-.72a.11.11,0,0,1,0-.07c.25,2.27,2.42,4.29,4.3,5.36a7.12,7.12,0,0,0,3.47,1.08,3.82,3.82,0,0,0,2.55-.94l.26.14.5.3,72.74,42,7.87,4.54h0s0,0,.05,0a7.72,7.72,0,0,0,3.64.84v-3.29A7.61,7.61,0,0,1,173.79,362Z"
        style="fill: rgb(22, 72, 125); transform-origin: 128.3px 337.434px;" id="elp04k3pbk9p9" class="animable"></path>
      <g id="elhb3qcw53zve">
        <path
          d="M173.79,362h0l-5-2.91L111,325.69,92.52,315c-1.31-.77-2.38-1-2.45-.65a.09.09,0,0,0,0,.05v.84c0,.92-1.3.92-2.9,0s-2.25-2-2.27-2.91v-.91a1.33,1.33,0,0,0-.43-1.08l-.43-.24-.91-.53L82,309a1.14,1.14,0,0,0-1.43.13.45.45,0,0,0-.15.13,1.42,1.42,0,0,0-.25.34.8.8,0,0,0-.13.19,3.57,3.57,0,0,0-.33.71c-.1.26-.18.54-.26.83s-.12.62-.18,1a3.81,3.81,0,0,0-.07.59c0,.15,0,.3,0,.47,0,.35-.05.72-.05,1.11v12.48H82V314.41c0-.3,0-.6,0-.88l.07-.72a.11.11,0,0,1,0-.07c.25,2.27,2.42,4.29,4.3,5.36a7.12,7.12,0,0,0,3.47,1.08,3.82,3.82,0,0,0,2.55-.94l.26.14.5.3,72.74,42,7.87,4.54h0s0,0,.05,0a7.72,7.72,0,0,0,3.64.84v-3.29A7.61,7.61,0,0,1,173.79,362Z"
          style="opacity: 0.3; transform-origin: 128.3px 337.434px;" class="animable"></path>
      </g>
      <g id="eloidsa6gvd4">
        <path
          d="M220.43,241.9c-1.37-.79-3.12-1.05-3.92-.58l-1.45.83c-1.6-.94-2.88-2.42-2.88-3.34V238a1.66,1.66,0,0,0-.22-.77,1.2,1.2,0,0,0-.45-.51,0,0,0,0,0,0,0c-.28-.16-.54-.3-.64-.37l0,0-1.51-.88c-1.6-.91-4.55-.71-6.6.47L82.81,305.15l-.13.09,84.7,48.9a5.45,5.45,0,0,0,4.93,0L293,283.79Z"
          style="opacity: 0.1; transform-origin: 187.84px 294.815px;" class="animable"></path>
      </g>
      <path
        d="M302.56,290.54v3.35A2.56,2.56,0,0,1,301.1,296l-.06,0L189,360.69l-7.86,4.54v0s0,0,0,0a7.76,7.76,0,0,1-3.69.86v-3.29a7.47,7.47,0,0,0,3.7-.88l5-2.89h0L301,292.72A2.51,2.51,0,0,0,302.56,290.54Z"
        style="fill: rgb(22, 72, 125); transform-origin: 240.005px 328.316px;" id="eldt6hgskncdl" class="animable">
      </path>
      <g id="el9a6z7qqisim">
        <path
          d="M302.56,290.54v3.35A2.56,2.56,0,0,1,301.1,296l-.06,0L189,360.69l-7.86,4.54v0s0,0,0,0a7.76,7.76,0,0,1-3.69.86v-3.29a7.47,7.47,0,0,0,3.7-.88l5-2.89h0L301,292.72A2.51,2.51,0,0,0,302.56,290.54Z"
          style="opacity: 0.2; transform-origin: 240.005px 328.316px;" class="animable"></path>
      </g>
      <path d="M160.6,347.08l3.21-1.85a5.21,5.21,0,0,0-2.69-.19C160.27,345.44,160.6,347.08,160.6,347.08Z"
        id="elv1l2lqlp3ph" class="animable" style="transform-origin: 162.173px 346.012px;"></path>
      <path d="M158.4,345.06a3.87,3.87,0,0,1,5.71,0c3.12,2.86,3.28,5.7,4.57,5.65S170,327.85,170,327.85l-12.29,11.43Z"
        id="elmkoiyuib3z" class="animable" style="transform-origin: 163.855px 339.28px;"></path>
      <path d="M287.19,262.08l.2-.11-2-1.14-84.81-49L77,291.84c-2,1.18-2.41,2.88-.81,3.8l2.89,1.66,79.28,45.79.56-.4Z"
        style="fill: rgb(69, 90, 100); transform-origin: 181.298px 277.46px;" id="el4ht4srlck4d" class="animable">
      </path>
      <path d="M169,317.05l-6.14-1.27v24.59c3.7,1.57,6.06,3.05,6.45,6.15Z"
        style="fill: rgb(22, 72, 125); transform-origin: 166.085px 331.15px;" id="elc2putn124xv" class="animable">
      </path>
      <path
        d="M160.1,340.69,81.57,295.35a5.47,5.47,0,0,1-2.47-4.28V266.84L158.4,313s.94,3.43,3.75,4.51.67,2.17.67,2.17v20.67C160.39,340.08,160.1,340.69,160.1,340.69Z"
        style="fill: rgb(235, 235, 235); transform-origin: 121.35px 303.765px;" id="elfvrw0wsqyw" class="animable">
      </path>
      <path
        d="M167.35,316.21c-.82-.47-1.46-.5-1.46-.06v.77c0,.85-1.29.81-2.9-.12s-2.91-2.36-2.91-3.21v-.77c0-.45-1.09-1.43-2.45-2.21L285.41,237.4l2,1.14a1.88,1.88,0,0,1,.48,1.06v.77c0,.86,1.3,2.29,2.9,3.22s2.9,1,2.9.11v-.76c0-.45.64-.42,1.45.05Z"
        style="fill: rgb(55, 71, 79); transform-origin: 226.385px 277.464px;" id="elob0tr4s86u" class="animable"></path>
      <path d="M287.19,238.66l.2-.12-2-1.14-84.81-49L77,259.8c-2,1.18-2.41,2.88-.81,3.8l2.89,1.67L158.4,313Z"
        style="fill: rgb(69, 90, 100); transform-origin: 181.298px 250.7px;" id="elbqdcawqqc9o" class="animable"></path>
      <path d="M293.7,242.19,166,315.9l4.47,3.5,127.26-73.48a4.89,4.89,0,0,0-1.7-2.37Z"
        style="fill: rgb(69, 90, 100); transform-origin: 231.865px 280.795px;" id="el5i17n2ctdj8" class="animable">
      </path>
      <path
        d="M297.25,278.93a1.19,1.19,0,0,0,.23-.16.45.45,0,0,0,.15-.13,1.42,1.42,0,0,0,.25-.34.8.8,0,0,0,.13-.19,3.57,3.57,0,0,0,.33-.71c.1-.26.18-.54.26-.83s.12-.62.18-1a3.81,3.81,0,0,0,.07-.59c0-.15,0-.3,0-.47,0-.35.05-.72.05-1.11V252.35a17.35,17.35,0,0,0-1.19-6.43L170.49,319.4l-.54,33L297.21,279Z"
        style="fill: rgb(69, 90, 100); transform-origin: 234.425px 299.16px;" id="elqtixp0z0pwg" class="animable">
      </path>
      <g id="elp2g9rv37s8">
        <path
          d="M170.49,319.4h0s100.23-46.91,109.35-51.21c6-2.84,9,3.12,7.55,9.29-1.25,5.39-6.56,10.94-6.56,10.94h0L297.21,279l0,0a1.19,1.19,0,0,0,.23-.16.45.45,0,0,0,.15-.13,1.42,1.42,0,0,0,.25-.34.8.8,0,0,0,.13-.19,3.57,3.57,0,0,0,.33-.71c.1-.26.18-.54.26-.83s.12-.62.18-1a3.81,3.81,0,0,0,.07-.59c0-.15,0-.3,0-.47,0-.35.05-.72.05-1.11V252.35a17.35,17.35,0,0,0-1.19-6.43Z"
          style="opacity: 0.1; transform-origin: 234.675px 282.66px;" class="animable"></path>
      </g>
      <path
        d="M171.67,325.83h-2.85a13,13,0,0,0-1.38-6.22,3.82,3.82,0,0,1-2.34.77,7.44,7.44,0,0,1-3.54-1.11,10.85,10.85,0,0,1-3.29-2.89,2.85,2.85,0,0,1-.17-.26,4.65,4.65,0,0,1-.86-2.44L82,270.26l-2.55-1.49-3.26-1.88a1.72,1.72,0,0,1-1-1.46v-3.34a1.76,1.76,0,0,0,1,1.51l0,0,8.64,5,72.74,42c1.35.78,2.46,1.76,2.46,2.2v.77a2.34,2.34,0,0,0,.67,1.36A8,8,0,0,0,163,316.8c1.61.93,2.91,1,2.91.12v-.77c0-.44.64-.42,1.45.05l1.44.84C170.37,318,171.67,321.9,171.67,325.83Z"
        style="fill: rgb(55, 71, 79); transform-origin: 123.43px 293.96px;" id="elrgurlkhpk2" class="animable"></path>
      <path
        d="M168.82,325.83v21.1c0,.3,0,.59,0,.88l-.07.71a.17.17,0,0,1,0,.07c-.26-2.26-2.42-4.28-4.3-5.35a7.16,7.16,0,0,0-3.48-1.09,3.84,3.84,0,0,0-2.55.94l-.26-.14-.49-.3-72.74-42-4.18-2.41c-.38-.22-.8-.45-1.19-.69l-3.52-2a1.67,1.67,0,0,1-.79-1.37v3.33a1.63,1.63,0,0,0,.73,1.29l0,0c.41.25.85.49,1.3.76l.81.47,1.39.81c.32.19.6.36.87.5l.61.36,1.07.62,57.79,33.35,18.44,10.65c1.31.77,2.38,1,2.45.64,0-.06,0-.12,0-.14v-.74c0-.93,1.29-.93,2.89,0s2.25,2,2.28,2.9v.91a1.35,1.35,0,0,0,.42,1.09l.43.24c.26.14.57.33.91.53l1.13.65a1.16,1.16,0,0,0,1.44-.13.53.53,0,0,0,.14-.12,1.87,1.87,0,0,0,.26-.35h0a1,1,0,0,0,.12-.17,3.53,3.53,0,0,0,.33-.71,7.29,7.29,0,0,0,.26-.83c.07-.31.13-.63.18-1a2.71,2.71,0,0,0,.07-.58c0-.16,0-.3,0-.47,0-.36,0-.73,0-1.11v-21.1Z"
        style="fill: rgb(55, 71, 79); transform-origin: 123.41px 323.386px;" id="el6gwtbsno6ij" class="animable"></path>
      <g id="el9uvno5q91n9">
        <path
          d="M297.75,245.91,176.8,315.75,85.37,263c-1.37-.78-1.37-2.06,0-2.85L205.06,191,285.4,237.4h0l2,1.15a1.87,1.87,0,0,1,.48,1v.77c0,.86,1.3,2.3,2.89,3.22a1.58,1.58,0,0,0,.26.13l2.66-1.54,1.27.73.17.08v0l.94.54A5,5,0,0,1,297.75,245.91Z"
          style="opacity: 0.1; transform-origin: 191.046px 253.375px;" class="animable"></path>
      </g>
      <path d="M92.18,263.49l3.64-1.94-3.32-.8A2.52,2.52,0,0,0,92.18,263.49Z"
        style="fill: rgb(22, 72, 125); transform-origin: 93.8674px 262.12px;" id="elo1h8uih1dag" class="animable">
      </path>
      <g id="elcbbnrk7t9yi">
        <path d="M92.18,263.49l3.64-1.94-3.32-.8A2.52,2.52,0,0,0,92.18,263.49Z"
          style="opacity: 0.5; transform-origin: 93.8674px 262.12px;" class="animable"></path>
      </g>
      <path d="M188.58,312a8.18,8.18,0,0,1-7.4,0l-83.08-48,124.37-70.65,2.91-1.68,83.08,46.81c2,1.18,2,3.1,0,4.27Z"
        style="fill: rgb(22, 72, 125); transform-origin: 204.03px 252.277px;" id="eltsti093sp1k" class="animable">
      </path>
      <path
        d="M157.39,222.59l-29,16.68-18.75-10.83L87.84,241V255.6c0,1.91,2.14,4.62,2.91,4.18a21.4,21.4,0,0,1,4.17,1.48,31.33,31.33,0,0,1,6,4.45l66.57-37.27Z"
        style="fill: rgb(22, 72, 125); transform-origin: 127.665px 244.15px;" id="el2shwm9dxo4n" class="animable">
      </path>
      <g id="elj5h1a1cv7ye">
        <path
          d="M157.39,222.59l-29,16.68-18.75-10.83L87.84,241V255.6c0,1.91,2.14,4.62,2.91,4.18a21.4,21.4,0,0,1,4.17,1.48,31.33,31.33,0,0,1,6,4.45l66.57-37.27Z"
          style="opacity: 0.15; transform-origin: 127.665px 244.15px;" class="animable"></path>
      </g>
      <path d="M99.81,242.79V258.6a2.56,2.56,0,0,0-.25-.16A7.52,7.52,0,0,0,96,257.33a3.68,3.68,0,0,0-2.34.55V239.25Z"
        style="fill: rgb(55, 71, 79); transform-origin: 96.735px 248.925px;" id="el483xg349qhz" class="animable"></path>
      <path
        d="M103.89,264a5,5,0,0,0-1-2.7,9.29,9.29,0,0,0-1-1.17l-.35-.33-.46-.39-.38-.28a9.79,9.79,0,0,0-.82-.55V242.87l4.06,2.35v-.08Z"
        style="fill: rgb(224, 224, 224); transform-origin: 101.91px 253.435px;" id="elsg9d9g5blyn" class="animable">
      </path>
      <g id="el0lsi7sbyw3tp">
        <path d="M87.84,255.6c0,1.91,2.14,4.62,2.91,4.18h0l2.91-1.9v-12l-2.92-5-1.59-.56-1.32.76Z"
          style="opacity: 0.4; transform-origin: 90.745px 250.074px;" class="animable"></path>
      </g>
      <path d="M184.88,291.91v18a4.92,4.92,0,0,1-2.46-.58l-9.12-5.26L103.88,264V245.14Z"
        style="fill: rgb(235, 235, 235); transform-origin: 144.38px 277.526px;" id="elewog09aqy7c" class="animable">
      </path>
      <g id="el8gc5q1l2blc">
        <path d="M109.13,257.22l19.43,11.22s-2-2.1-9.71-6.49C111.36,257.68,109.13,257.22,109.13,257.22Z"
          style="opacity: 0.15; transform-origin: 118.845px 262.83px;" class="animable"></path>
      </g>
      <path d="M306.38,224.17v13.62a5.45,5.45,0,0,1-2.47,4.27l-107.46,62-9.1,5.26a4.93,4.93,0,0,1-2.47.58V294Z"
        style="fill: rgb(245, 245, 245); transform-origin: 245.63px 267.036px;" id="el8fthdtai43d" class="animable">
      </path>
      <path
        d="M222.47,170,98.1,241.8v1.67c0,.93-1.3,1.27-2.89.34s-2.91-2.08-2.91-3.67l-.15-1.58L218.87,165.4l.51-.3a1.71,1.71,0,0,1,.21.77v.77C219.59,167.57,220.88,169.05,222.47,170Z"
        style="fill: rgb(22, 72, 125); transform-origin: 157.31px 204.73px;" id="elayyfs3axayp" class="animable"></path>
      <g id="elq82z5d7jzk">
        <path
          d="M222.47,170,98.1,241.8v1.67c0,.93-1.3,1.27-2.89.34s-2.91-2.08-2.91-3.67l-.15-1.58L218.87,165.4l.51-.3a1.71,1.71,0,0,1,.21.77v.77C219.59,167.57,220.88,169.05,222.47,170Z"
          style="opacity: 0.1; transform-origin: 157.31px 204.73px;" class="animable"></path>
      </g>
      <path
        d="M181.18,289.77l-81.24-46.9c-1-.54-2-1-2.37-.77l.53-.3L222.47,170l1.45-.84c.81-.46,2.56-.2,3.92.58l80.62,46.55c2,1.18,2,3.1,0,4.27L188.58,289.77A8.18,8.18,0,0,1,181.18,289.77Z"
        style="fill: rgb(22, 72, 125); transform-origin: 203.765px 229.794px;" id="eluo7domj7fwk" class="animable">
      </path>
      <path
        d="M225.94,190,270.86,216c1.9,1.1,1.9,2.89,0,4l-6.05,3.49a7.65,7.65,0,0,1-6.91,0L213,197.51c-1.91-1.1-1.91-2.89,0-4l6-3.49A7.63,7.63,0,0,1,225.94,190Z"
        style="fill: rgb(255, 255, 255); transform-origin: 241.926px 206.745px;" id="el94cue6n6b3k" class="animable">
      </path>
      <path
        d="M178.11,281.44a.79.79,0,0,1-.4-.1l-61-35.13a.8.8,0,0,1,0-1.39,3.73,3.73,0,0,0,0-6.45.78.78,0,0,1-.4-.69.79.79,0,0,1,.4-.69l101.88-58.82a.81.81,0,0,1,.8,0,12.78,12.78,0,0,0,12.76,0,.81.81,0,0,1,.8,0l60.93,35.18a.82.82,0,0,1,.4.69.8.8,0,0,1-.4.69,3.73,3.73,0,0,0,0,6.45.8.8,0,0,1,.4.69.82.82,0,0,1-.4.69L192.05,281.33a.81.81,0,0,1-.8,0,12.77,12.77,0,0,0-12.74,0A.82.82,0,0,1,178.11,281.44Zm-59.6-36,59.61,34.31a14.38,14.38,0,0,1,13.52,0L292,221.78a5.33,5.33,0,0,1,0-7.65l-59.5-34.35a14.44,14.44,0,0,1-13.55,0l-100.44,58a5.33,5.33,0,0,1,0,7.65Z"
        style="fill: rgb(255, 255, 255); transform-origin: 205.293px 229.752px;" id="elwqt46qvyotb" class="animable">
      </path>
      <path
        d="M219.38,165.1l-.51.3L92.15,238.56a1,1,0,0,0-.28-.35l-.42-.24-.91-.53c-.35-.19-.73-.42-1.13-.65a1.16,1.16,0,0,0-1.44.13.43.43,0,0,0-.14.13,2.33,2.33,0,0,0-.38.52,3.38,3.38,0,0,0-.33.72,6.55,6.55,0,0,0-.26.82c-.07.31-.13.63-.18,1a2.79,2.79,0,0,0-.07.58c0,.16,0,.3,0,.47,0,.36,0,.73,0,1.11v-3.56c0-2,1.67-4.51,3.7-5.69l119.89-69.23c2-1.18,5-1.38,6.59-.47l1.51.89.06,0c.1.07.36.21.64.37h0A1.21,1.21,0,0,1,219.38,165.1Z"
        style="fill: rgb(22, 72, 125); transform-origin: 152.995px 202.511px;" id="elgxq0m0xq7a" class="animable">
      </path>
      <path
        d="M181.18,312l-5-2.91L101,265.7a4.87,4.87,0,0,0-1-2.69,10.85,10.85,0,0,0-3.29-2.89A7.48,7.48,0,0,0,93.09,259a3.8,3.8,0,0,0-2.34.77,13,13,0,0,1-1.38-6.22H86.52c0,3.93,1.3,7.87,2.89,8.78l1.44.84c.81.47,1.45.5,1.45.06v-.77c0-.85,1.3-.81,2.91.12S98.1,265,98.1,265.8v.77c0,.45,1.11,1.43,2.46,2.21l72.74,42,7.88,4.55h0a7.76,7.76,0,0,0,3.69.87v-3.29A7.47,7.47,0,0,1,181.18,312Z"
        style="fill: rgb(22, 72, 125); transform-origin: 135.695px 284.875px;" id="eltrs93zhl1ym" class="animable">
      </path>
      <g id="el3tssd3oq3hu">
        <path
          d="M181.18,312l-5-2.91L101,265.7a4.87,4.87,0,0,0-1-2.69,10.85,10.85,0,0,0-3.29-2.89A7.48,7.48,0,0,0,93.09,259a3.8,3.8,0,0,0-2.34.77,13,13,0,0,1-1.38-6.22H86.52c0,3.93,1.3,7.87,2.89,8.78l1.44.84c.81.47,1.45.5,1.45.06v-.77c0-.85,1.3-.81,2.91.12S98.1,265,98.1,265.8v.77c0,.45,1.11,1.43,2.46,2.21l72.74,42,7.88,4.55h0a7.76,7.76,0,0,0,3.69.87v-3.29A7.47,7.47,0,0,1,181.18,312Z"
          style="opacity: 0.3; transform-origin: 135.695px 284.875px;" class="animable"></path>
      </g>
      <path
        d="M181.21,289.79l0,0-5-2.9-57.79-33.34L99.94,242.87c-1.31-.77-2.38-1-2.45-.64a0,0,0,0,0,0,0v.84c0,.93-1.29.93-2.89,0s-2.25-2-2.28-2.9v-.91a1.32,1.32,0,0,0-.43-1.09l-.42-.24c-.26-.14-.57-.33-.91-.53s-.73-.42-1.13-.65a1.16,1.16,0,0,0-1.44.13.43.43,0,0,0-.14.13,1.46,1.46,0,0,0-.26.34.81.81,0,0,0-.12.18,3.38,3.38,0,0,0-.33.72,6.55,6.55,0,0,0-.26.82c-.07.31-.13.63-.18,1a2.79,2.79,0,0,0-.07.58c0,.16,0,.3,0,.47,0,.36,0,.73,0,1.11v11.32h2.85V242.24c0-.29,0-.59,0-.88l.07-.71a.17.17,0,0,1,0-.07c.26,2.26,2.42,4.29,4.3,5.35A7.16,7.16,0,0,0,97.26,247a3.84,3.84,0,0,0,2.55-.94l.25.14.5.3,72.74,42,7.88,4.54s0,0,0,0l.06,0a7.77,7.77,0,0,0,3.63.84v-3.29A7.65,7.65,0,0,1,181.21,289.79Z"
        style="fill: rgb(22, 72, 125); transform-origin: 135.75px 265.22px;" id="el8c6kz57s6yb" class="animable"></path>
      <g id="eldqdyifm7s4g">
        <path
          d="M181.21,289.79l0,0-5-2.9-57.79-33.34L99.94,242.87c-1.31-.77-2.38-1-2.45-.64a0,0,0,0,0,0,0v.84c0,.93-1.29.93-2.89,0s-2.25-2-2.28-2.9v-.91a1.32,1.32,0,0,0-.43-1.09l-.42-.24c-.26-.14-.57-.33-.91-.53s-.73-.42-1.13-.65a1.16,1.16,0,0,0-1.44.13.43.43,0,0,0-.14.13,1.46,1.46,0,0,0-.26.34.81.81,0,0,0-.12.18,3.38,3.38,0,0,0-.33.72,6.55,6.55,0,0,0-.26.82c-.07.31-.13.63-.18,1a2.79,2.79,0,0,0-.07.58c0,.16,0,.3,0,.47,0,.36,0,.73,0,1.11v11.32h2.85V242.24c0-.29,0-.59,0-.88l.07-.71a.17.17,0,0,1,0-.07c.26,2.26,2.42,4.29,4.3,5.35A7.16,7.16,0,0,0,97.26,247a3.84,3.84,0,0,0,2.55-.94l.25.14.5.3,72.74,42,7.88,4.54s0,0,0,0l.06,0a7.77,7.77,0,0,0,3.63.84v-3.29A7.65,7.65,0,0,1,181.21,289.79Z"
          style="opacity: 0.3; transform-origin: 135.75px 265.22px;" class="animable"></path>
      </g>
      <path
        d="M310,218.38v3.34a2.54,2.54,0,0,1-1.47,2.11l-.05,0-112,64.66-7.86,4.55h0a7.73,7.73,0,0,1-3.69.87v-3.29a7.51,7.51,0,0,0,3.71-.88l5-2.89h0l114.86-66.34A2.53,2.53,0,0,0,310,218.38Z"
        style="fill: rgb(22, 72, 125); transform-origin: 247.465px 256.146px;" id="elqq95bzligr" class="animable">
      </path>
      <g id="els5j0x6mgxp">
        <path
          d="M310,218.38v3.34a2.54,2.54,0,0,1-1.47,2.11l-.05,0-112,64.66-7.86,4.55h0a7.73,7.73,0,0,1-3.69.87v-3.29a7.51,7.51,0,0,0,3.71-.88l5-2.89h0l114.86-66.34A2.53,2.53,0,0,0,310,218.38Z"
          style="opacity: 0.2; transform-origin: 247.465px 256.146px;" class="animable"></path>
      </g>
      <path
        d="M310,240.64V244a2.54,2.54,0,0,1-1.47,2.11l-.05,0-112,64.66-7.86,4.55h0a7.73,7.73,0,0,1-3.69.87v-3.29a7.51,7.51,0,0,0,3.71-.88l5-2.89h0l114.86-66.33A2.54,2.54,0,0,0,310,240.64Z"
        style="fill: rgb(22, 72, 125); transform-origin: 247.465px 278.416px;" id="elfyz2nu9p3dp" class="animable">
      </path>
      <g id="elyilm05f7kd">
        <path
          d="M310,240.64V244a2.54,2.54,0,0,1-1.47,2.11l-.05,0-112,64.66-7.86,4.55h0a7.73,7.73,0,0,1-3.69.87v-3.29a7.51,7.51,0,0,0,3.71-.88l5-2.89h0l114.86-66.33A2.54,2.54,0,0,0,310,240.64Z"
          style="opacity: 0.2; transform-origin: 247.465px 278.416px;" class="animable"></path>
      </g>
      <polygon points="112.37 259.09 112.37 303.97 118.85 296.49 125.33 311.45 125.33 266.57 112.37 259.09"
        style="fill: rgb(22, 72, 125); transform-origin: 118.85px 285.27px;" id="elr4izgybd0y" class="animable">
      </polygon>
      <g id="el3z2xdmsau3s">
        <polygon points="112.37 259.09 112.37 303.97 118.85 296.49 125.33 311.45 125.33 266.57 112.37 259.09"
          style="opacity: 0.5; transform-origin: 118.85px 285.27px;" class="animable"></polygon>
      </g>
      <path
        d="M138.28,352.59v12.18a11.29,11.29,0,0,1-5.65,9.78l-17,9.83,16.19-1.87-3.24,9.35,17-9.83a11.31,11.31,0,0,0,5.65-9.78V360.07Z"
        style="fill: rgb(22, 72, 125); transform-origin: 133.43px 372.225px;" id="el4rgfmcmtnev" class="animable">
      </path>
      <g id="eli8t1f473hu">
        <path
          d="M138.28,352.59v12.18a11.29,11.29,0,0,1-5.65,9.78l-17,9.83,16.19-1.87-3.24,9.35,17-9.83a11.31,11.31,0,0,0,5.65-9.78V360.07Z"
          style="opacity: 0.5; transform-origin: 133.43px 372.225px;" class="animable"></path>
      </g>
    </g>
  </g>
  <g id="freepik--speach-bubble--inject-2" class="animable" style="transform-origin: 390.906px 151.876px;">
    <g id="freepik--speach-bubble--inject-2" class="animable" style="transform-origin: 390.906px 151.876px;">
      <path d="M382.62,145.66V134.72l-9.24-.81a.69.69,0,0,0-.38.08l-9.22,5.27a.68.68,0,0,0-.15,1l9.8,10.62Z"
        style="fill: rgb(22, 72, 125); transform-origin: 373.047px 142.394px;" id="eleksdgc6bzgw" class="animable">
      </path>
      <path d="M373.43,150.92l-9.8-10.62a.67.67,0,0,1,.56-1.13l9.24.8Z"
        style="fill: rgb(22, 72, 125); transform-origin: 368.436px 145.043px;" id="elwxg67pu11a" class="animable">
      </path>
      <path d="M382.62,134.72,373.43,140l-9.24-.81a.66.66,0,0,0-.32.05c.74-.44,8.79-5.05,9.13-5.23a.7.7,0,0,1,.39-.08Z"
        style="fill: rgb(22, 72, 125); transform-origin: 373.245px 136.964px;" id="el1zdctsvufwmh" class="animable">
      </path>
      <g id="eleol0jzze0pb">
        <path
          d="M382.62,134.72,373.43,140l-9.24-.81a.66.66,0,0,0-.32.05c.74-.44,8.79-5.05,9.13-5.23a.7.7,0,0,1,.39-.08Z"
          style="fill: rgb(255, 255, 255); opacity: 0.5; transform-origin: 373.245px 136.964px;" class="animable">
        </path>
      </g>
      <path
        d="M373.44,127.63a7.36,7.36,0,0,1,3.33-5.77l2.71-1.56a7.31,7.31,0,0,1,6.66,0L415,137a7.35,7.35,0,0,1,3.33,5.77v33.38A7.38,7.38,0,0,1,415,181.9l-2.71,1.56a7.37,7.37,0,0,1-6.66,0l-8.53-4.92-11.09-6.41-9.28-5.35a7.36,7.36,0,0,1-3.33-5.77Z"
        style="fill: rgb(22, 72, 125); transform-origin: 395.865px 151.876px;" id="eliz8vp2n1buq" class="animable">
      </path>
      <path
        d="M402.35,157.09a16.41,16.41,0,0,0-1.35-6.38h0l0,0a11.11,11.11,0,0,0-4.07-5.21c-2.78-1.64-5.11,1.69-5.47,5.62-.33-4.34-2.61-10.38-5.4-12a3,3,0,0,0-4.1.41l0,0h0a7.22,7.22,0,0,0-1.41,4.76c0,6.64,4,12.67,7.31,19l3.52,6.66,3.57-2.49C398.3,165.05,402.32,163.74,402.35,157.09Z"
        style="fill: rgb(250, 250, 250); transform-origin: 391.443px 154.222px;" id="el6ig0g111y2x" class="animable">
      </path>
      <g id="el6m4nsbg18il">
        <path
          d="M418.37,176.13A7.38,7.38,0,0,1,415,181.9l-2.71,1.56a7.46,7.46,0,0,1-6.09.27c1.56.59,2.76-.29,2.76-2.19V148.16a6.72,6.72,0,0,0-1-3.28l9.37-5.41a6.72,6.72,0,0,1,1,3.28Z"
          style="opacity: 0.2; transform-origin: 412.285px 161.861px;" class="animable"></path>
      </g>
      <g id="el3hb4zks3666">
        <path
          d="M373.55,126.68c.39-1.41,1.68-1.86,3.22-1l28.9,16.69a6.58,6.58,0,0,1,2.35,2.49l9.36-5.41A6.76,6.76,0,0,0,415,137L386.15,120.3a7.37,7.37,0,0,0-6.66,0l-2.72,1.57A7.36,7.36,0,0,0,373.55,126.68Z"
          style="fill: rgb(255, 255, 255); opacity: 0.5; transform-origin: 395.465px 132.182px;" class="animable">
        </path>
      </g>
    </g>
  </g>
  <g id="freepik--Character--inject-2" class="animable" style="transform-origin: 318.315px 261.432px;">
    <g id="freepik--character--inject-2" class="animable" style="transform-origin: 318.315px 261.432px;">
      <path d="M301.44,199.3c14.07-.47,21.05,6.76,29.57,19.06s32,46.4,32,46.4l-18.27,10.55-40-54.87Z"
        style="fill: rgb(255, 168, 167); transform-origin: 332.225px 237.294px;" id="el5dcx1vkr2qq" class="animable">
      </path>
      <path
        d="M288.73,109.57c-30.55,1.52-42.91,25.79-38.67,48,3.68,19.26,18.16,29.68,37.89,29.68h2.47c21.47,0,35.76-22,38.4-33.86C335,125.85,315.81,108.23,288.73,109.57Z"
        style="fill: rgb(55, 71, 79); transform-origin: 289.617px 148.374px;" id="elr9zg6zoaia" class="animable"></path>
      <path
        d="M364.07,396.47c.75,18.47-29.51,22.09-56.09,9.41-20.05-9.56-29-16.46-47.25-30.08-22.61-16.91-29.39-42.52-13.26-72.94l76.91-4C337.77,314.38,386,335,402,371.68c7.77,19.39-18.92,29.6-38,24.79Z"
        style="fill: rgb(69, 90, 100); transform-origin: 320.998px 356.113px;" id="eljk7c8mtyy7m" class="animable">
      </path>
      <path
        d="M364.07,396.47c-2-17.41-15.25-26-26.62-34.43S302.19,339,302.19,339s11.88,2.77,22.78-8.44a16.55,16.55,0,0,1-7.66,11.79s33.07,18.91,43,34.94A26.88,26.88,0,0,1,364.07,396.47Z"
        style="fill: rgb(55, 71, 79); transform-origin: 333.344px 363.515px;" id="el3k7xadr2fyv" class="animable">
      </path>
      <path
        d="M282.81,199.3H274c-8.53.6-17,1.26-17,1.26-13.66,4.93-13.6,15.7-14.28,21.35-1,8,1.26,12.56,3.89,20.16l12.6,36.44s-4.88,10.88-11.73,24.35c31.62,17.64,70.07,11.75,79.57-1.13.4-2.73-1-31.63-2.54-45.58a21.71,21.71,0,0,0,3.91-29.93c-11.89-16.25-22.71-26.05-27-26.92Z"
        style="fill: rgb(22, 72, 125); transform-origin: 287.589px 256.594px;" id="elm5vq3j22xd9" class="animable">
      </path>
      <g id="elonn5izcugd">
        <path
          d="M282.81,199.3H274c-8.53.6-17,1.26-17,1.26-13.66,4.93-13.6,15.7-14.28,21.35-1,8,1.26,12.56,3.89,20.16l12.6,36.44s-4.88,10.88-11.73,24.35c31.62,17.64,70.07,11.75,79.57-1.13.4-2.73-1-31.63-2.54-45.58a21.71,21.71,0,0,0,3.91-29.93c-11.89-16.25-22.71-26.05-27-26.92Z"
          style="opacity: 0.3; transform-origin: 287.589px 256.594px;" class="animable"></path>
      </g>
      <g id="elzfx60fh8gm">
        <path
          d="M256.64,284.06c-1.08,2.32-2.48,5.27-4.11,8.61-.28.59-.57,1.19-.87,1.79-.37.76-.75,1.54-1.15,2.33-1,1.94-2,4-3,6.07,1.17.65,2.35,1.25,3.53,1.84,21.16,10.52,44.72,11.05,60.41,6.35a91.7,91.7,0,0,1-32-1.39,19.1,19.1,0,0,1-14.23-23.28,7.24,7.24,0,0,1,.32-1c2-4.89,6.41-4.25,6.41-4.25A18.43,18.43,0,0,1,264,269.37l-1.66-5.07a59.43,59.43,0,0,1-.56-35.56l.09-.33-13.44-7.66-2.35,1.63v0a29.2,29.2,0,0,0-1.28,7.29v0c0,.63,0,1.27,0,1.91,0,.3,0,.6,0,.89,0,.54.06,1.07.11,1.6s.08.85.14,1.27.12.9.2,1.35.21,1.09.33,1.63c.08.34.14.69.23,1,.23.89.49,1.78.79,2.65l12.6,36.44S258.27,280.59,256.64,284.06Z"
          style="opacity: 0.15; transform-origin: 278.125px 267.316px;" class="animable"></path>
      </g>
      <path
        d="M314.5,128.46c2,1,7.41,11.35,6.89,33.88-.44,19.1-6.63,23.81-9.74,25.17s-9.1.53-14.93-.44v11.46s8.06,9.36,7.55,14.61-11.63,6.5-19.16,1.37a48.83,48.83,0,0,1-12.37-12.95v-27.7s-3.18,3.49-9.62-.78-7.43-13.09-3.69-16.89,11.81-2.59,13.31,2.65c0,0,9.44,1.67,22.1-6.48C308.51,143.56,312.72,136.56,314.5,128.46Z"
        style="fill: rgb(255, 168, 167); transform-origin: 289.34px 173.119px;" id="elnim7ijboqwo" class="animable">
      </path>
      <path d="M317.62,149.81l-5.34-2.55a2.84,2.84,0,0,1,3.85-1.46A3.1,3.1,0,0,1,317.62,149.81Z"
        style="fill: rgb(38, 50, 56); transform-origin: 315.076px 147.665px;" id="eloyvlwcz1ng" class="animable"></path>
      <path d="M293.8,146.76l-5,3.15a2.83,2.83,0,0,1,.82-4A3.09,3.09,0,0,1,293.8,146.76Z"
        style="fill: rgb(38, 50, 56); transform-origin: 291.05px 147.673px;" id="elz73v5gylffs" class="animable"></path>
      <path d="M272.52,153.58l.33,11.68a5.67,5.67,0,0,0,5.8-5.81A6.14,6.14,0,0,0,272.52,153.58Z"
        style="fill: rgb(55, 71, 79); transform-origin: 275.586px 159.421px;" id="elpgxxx4yhxk" class="animable"></path>
      <path d="M297.93,156.81a2.4,2.4,0,1,1-2.52-2.38A2.44,2.44,0,0,1,297.93,156.81Z"
        style="fill: rgb(38, 50, 56); transform-origin: 295.53px 156.828px;" id="elb8euqpklotk" class="animable"></path>
      <path d="M300,173.71l6.33,2a3.26,3.26,0,0,1-4.12,2.27A3.47,3.47,0,0,1,300,173.71Z"
        style="fill: rgb(242, 143, 143); transform-origin: 303.094px 175.919px;" id="elrkxuzdb71n" class="animable">
      </path>
      <path d="M316.5,155.81a2.4,2.4,0,1,1-2.52-2.38A2.44,2.44,0,0,1,316.5,155.81Z"
        style="fill: rgb(38, 50, 56); transform-origin: 314.1px 155.828px;" id="elcz984r6ybhn" class="animable"></path>
      <polygon points="304.77 154.43 305.16 168.89 312.76 166.53 304.77 154.43"
        style="fill: rgb(242, 143, 143); transform-origin: 308.765px 161.66px;" id="el7817tz0hu1o" class="animable">
      </polygon>
      <path d="M296.72,187.07c-6.14-.8-18.77-4.43-20.74-9.43,0,0,.66,3.14,4.43,6.38s16.31,6.88,16.31,6.88Z"
        style="fill: rgb(242, 143, 143); transform-origin: 286.35px 184.27px;" id="elwts4y5il6z" class="animable">
      </path>
      <path d="M386.29,239.75s-.24-3.52,4.4-6.95,10.7-6.18,12.68-14.7l6.39,3.69L399,239.89Z"
        style="fill: rgb(22, 72, 125); transform-origin: 398.024px 228.995px;" id="elcarx4ly40xe" class="animable">
      </path>
      <g id="elvip0370a4c">
        <path d="M386.29,239.75s-.24-3.52,4.4-6.95,10.7-6.18,12.68-14.7l6.39,3.69L399,239.89Z"
          style="fill: rgb(255, 255, 255); opacity: 0.75; transform-origin: 398.024px 228.995px;" class="animable">
        </path>
      </g>
      <path d="M386.29,239.75s-7-3.5-22.29-.34-27.81,7.25-57.21,6.6l7.63,4.41L390.75,246Z"
        style="fill: rgb(22, 72, 125); transform-origin: 348.77px 244.254px;" id="el5lkgcmo8q0p" class="animable">
      </path>
      <g id="el3i7tgwj8soh">
        <path d="M386.29,239.75s-7-3.5-22.29-.34-27.81,7.25-57.21,6.6l7.63,4.41L390.75,246Z"
          style="fill: rgb(255, 255, 255); opacity: 0.75; transform-origin: 348.77px 244.254px;" class="animable">
        </path>
      </g>
      <polygon points="306.79 246.01 279.5 333.84 287.13 338.25 314.42 250.42 306.79 246.01"
        style="fill: rgb(22, 72, 125); transform-origin: 296.96px 292.13px;" id="eliem8bchbwc" class="animable">
      </polygon>
      <g id="el2mbmzcf3856">
        <polygon points="306.79 246.01 279.5 333.84 287.13 338.25 314.42 250.42 306.79 246.01"
          style="fill: rgb(255, 255, 255); opacity: 0.8; transform-origin: 296.96px 292.13px;" class="animable">
        </polygon>
      </g>
      <g id="elnbrkjur203n">
        <polygon points="306.79 246.01 279.5 333.84 287.13 338.25 314.42 250.42 306.79 246.01"
          style="opacity: 0.1; transform-origin: 296.96px 292.13px;" class="animable"></polygon>
      </g>
      <g id="elvvyl2nbz3qr">
        <g style="opacity: 0.1; transform-origin: 369.775px 234.74px;" class="animable">
          <path
            d="M403.36,222.82a15.11,15.11,0,0,1-3.14,4.94,45.4,45.4,0,0,1-4.38,4,30.33,30.33,0,0,0-4.3,3.91A10.7,10.7,0,0,0,390,238a5.63,5.63,0,0,0-.55,2.59l-.93.14a6.35,6.35,0,0,1,.74-3.08,11.45,11.45,0,0,1,1.72-2.5,30.77,30.77,0,0,1,4.54-3.81,47.56,47.56,0,0,0,4.5-3.75A15.13,15.13,0,0,0,403.36,222.82Z"
            id="elprdlk89mseq" class="animable" style="transform-origin: 395.94px 231.775px;"></path>
          <path
            d="M402.14,227.77a14.88,14.88,0,0,1-2.35,3c-.88.93-1.78,1.82-2.64,2.76a19.75,19.75,0,0,0-2.3,3,7.86,7.86,0,0,0-1.2,3.39l-.94-.12a8.93,8.93,0,0,1,1.55-3.66,20.27,20.27,0,0,1,2.56-2.9c.92-.89,1.88-1.73,2.8-2.6A14.82,14.82,0,0,0,402.14,227.77Z"
            id="elgfasjn3if5d" class="animable" style="transform-origin: 397.425px 233.845px;"></path>
          <path
            d="M336.19,246.66a113.35,113.35,0,0,0,12.44-1.83c4.12-.83,8.19-1.85,12.28-2.8a57.45,57.45,0,0,1,12.52-1.63,45,45,0,0,1,6.35.25,20.33,20.33,0,0,1,3.15.6,7.83,7.83,0,0,1,3,1.48l-.65.68a7.05,7.05,0,0,0-2.59-1.32,21.14,21.14,0,0,0-3-.63,44.48,44.48,0,0,0-6.22-.36A56.61,56.61,0,0,0,361,242.49c-4.1.87-8.2,1.82-12.33,2.57A114.33,114.33,0,0,1,336.19,246.66Z"
            id="el726hj4mbrod" class="animable" style="transform-origin: 361.06px 243.519px;"></path>
          <path
            d="M356.37,246.28c2.37-.32,4.7-.81,7.05-1.26s4.7-.88,7.07-1.19a45.4,45.4,0,0,1,7.19-.48,19.91,19.91,0,0,1,7.16,1.32l-.38.86a19.11,19.11,0,0,0-6.81-1.48,45.56,45.56,0,0,0-7.1.24c-2.37.24-4.73.59-7.09,1S358.75,246,356.37,246.28Z"
            id="ellhpo4qzcdip" class="animable" style="transform-origin: 370.605px 244.813px;"></path>
        </g>
      </g>
      <polygon points="409.78 217.4 397.2 238.85 367.92 333.03 371.74 335.23 384.3 308.93 413.58 219.59 409.78 217.4"
        style="fill: rgb(22, 72, 125); transform-origin: 390.75px 276.315px;" id="elsy0mts9gxq" class="animable">
      </polygon>
      <g id="elm2qk8yaiao">
        <polygon points="401.01 241.06 413.58 219.59 384.3 308.93 371.74 335.23 401.01 241.06"
          style="opacity: 0.2; transform-origin: 392.66px 277.41px;" class="animable"></polygon>
      </g>
      <polygon points="384.65 246.1 309.37 250.93 280.09 345.1 283.91 347.3 359.19 342.47 388.46 248.3 384.65 246.1"
        style="fill: rgb(22, 72, 125); transform-origin: 334.275px 296.7px;" id="el647edjn4g7x" class="animable">
      </polygon>
      <g id="elj8peeac0p6">
        <polygon points="313.18 253.13 283.91 347.3 359.19 342.47 388.46 248.3 313.18 253.13"
          style="opacity: 0.2; transform-origin: 336.185px 297.8px;" class="animable"></polygon>
      </g>
      <path
        d="M297.16,342.92a.49.49,0,0,1-.37-.18.5.5,0,0,1-.08-.43,4.85,4.85,0,0,0-4.94-6.28.49.49,0,0,1-.4-.18.45.45,0,0,1-.08-.43l22.27-71.63a.47.47,0,0,1,.41-.33,10.22,10.22,0,0,0,9.07-7.13.47.47,0,0,1,.42-.33l51.72-3.32a.49.49,0,0,1,.4.18.47.47,0,0,1,.08.43,4.79,4.79,0,0,0,.82,4.44,4.73,4.73,0,0,0,4.12,1.84.46.46,0,0,1,.4.18.45.45,0,0,1,.08.43l-22.26,71.63a.48.48,0,0,1-.42.33,10.24,10.24,0,0,0-9.07,7.13.46.46,0,0,1-.42.33l-51.72,3.32Zm-4.78-7.84a5.8,5.8,0,0,1,5.39,6.86l50.77-3.26a11.16,11.16,0,0,1,9.48-7.45l22-70.71a5.8,5.8,0,0,1-5.4-6.86l-50.76,3.26a11.18,11.18,0,0,1-9.48,7.45Z"
        style="fill: rgb(250, 250, 250); transform-origin: 336.185px 297.8px;" id="elvuxnratmyi" class="animable">
      </path>
      <g id="elmmtess2jvq">
        <polygon points="309.37 250.93 313.18 253.13 283.91 347.3 280.09 345.1 309.37 250.93"
          style="opacity: 0.3; transform-origin: 296.635px 299.115px;" class="animable"></polygon>
      </g>
      <path d="M388.46,248.3,401,241.06l-29.27,94.17c-1.95,5.08-6.26,7.35-12.55,7.24Z"
        style="fill: rgb(22, 72, 125); transform-origin: 380.09px 291.767px;" id="elw41y60e4wz" class="animable"></path>
      <g id="elqc6v73mk7c">
        <path d="M388.46,248.3,401,241.06l-29.27,94.17c-2.19,5.37-6.62,7.42-12.55,7.24Z"
          style="opacity: 0.3; transform-origin: 380.09px 291.77px;" class="animable"></path>
      </g>
      <path d="M396.77,238.61c-2.33-1.37-7-.86-10.48,1.14s-4.38,4.72-2.05,6.09l4.22,2.46L401,241.06l-3.81-2.21Z"
        style="fill: rgb(69, 90, 100); transform-origin: 391.974px 243.071px;" id="el76h3pdg040j" class="animable">
      </path>
      <path d="M381.77,269.8c4.52.09,9.43-.48,11.62-4.22l2.91-9.32c-2.75,3.76-6.35,5.72-12,5.56Z"
        style="fill: rgb(224, 224, 224); transform-origin: 389.035px 263.034px;" id="elnv920ojmz9m" class="animable">
      </path>
      <path d="M397.2,238.85c-.74,3.62-5.36,5.88-12.55,7.25l3.81,2.2c6.18-.71,10.26-3.21,12.55-7.24Z"
        style="fill: rgb(22, 72, 125); transform-origin: 392.83px 243.575px;" id="ellnd8fcitxbk" class="animable">
      </path>
      <path
        d="M257,200.56c-7.82.47-16.13,3.07-19.69,17.22s-13.25,61.62-14,68-.9,11.53,14.43,16.44c17.3,5.53,45.26,7.7,53.16,8.12,14.57.79,24.28-3.5,28.93-11.87s6-19.51-7.08-14.11c-13.88,5.74-19.7,5.88-19.7,5.88l2.66-8.56c-4.35,1.89-8,7.84-12.35,8.56-3.86.65-33.25-9.52-33.25-9.52l10-42.67S269.24,211.16,257,200.56Z"
        style="fill: rgb(255, 168, 167); transform-origin: 273.084px 255.496px;" id="eleiq2jr87z4a" class="animable">
      </path>
      <path
        d="M258.45,184.77a65.49,65.49,0,0,1-5.2,5.13c-3.51,3.42-6,6.41-7.63,11s-1.42,10.11,1.54,14,8,5.7,10.09,10c1,2.06,1.2,4.42,1.53,6.7.7,4.93,2.22,9.87,5.25,13.83,4.91,6.44,15.41,9.69,22.12,3.82a15.91,15.91,0,0,0,4.34-7.45,26.13,26.13,0,0,0-.37-17.58c-2-4.94-5.83-8.9-9.36-12.91-3.15-3.58-7.31-8.23-8-13.17,0,0-.13-9.19-.06-13.55,0-2.13,0-4.28-2.06-5.4a13.38,13.38,0,0,0-5.18-1.78c-2.82-.14-3.3.21-3.3.21A21.54,21.54,0,0,1,258.45,184.77Z"
        style="fill: rgb(55, 71, 79); transform-origin: 268.22px 214.849px;" id="elkn0xsc09q3f" class="animable"></path>
      <path
        d="M398.94,264c-.91-3-4.28,2.63-5.76,11.22-1.41,8.22-3.35,16.81-3.35,16.81l-2.27,7s5.43-3.36,9.86-12.57S401.52,272.47,398.94,264Z"
        style="fill: rgb(255, 168, 167); transform-origin: 394.194px 281.108px;" id="el3brquk8wo0q" class="animable">
      </path>
    </g>
  </g>
  <defs>
    <filter id="active" height="200%">
      <feMorphology in="SourceAlpha" result="DILATED" operator="dilate" radius="2"></feMorphology>
      <feFlood flood-color="#32DFEC" flood-opacity="1" result="PINK"></feFlood>
      <feComposite in="PINK" in2="DILATED" operator="in" result="OUTLINE"></feComposite>
      <feMerge>
        <feMergeNode in="OUTLINE"></feMergeNode>
        <feMergeNode in="SourceGraphic"></feMergeNode>
      </feMerge>
    </filter>
    <filter id="hover" height="200%">
      <feMorphology in="SourceAlpha" result="DILATED" operator="dilate" radius="2"></feMorphology>
      <feFlood flood-color="#ff0000" flood-opacity="0.5" result="PINK"></feFlood>
      <feComposite in="PINK" in2="DILATED" operator="in" result="OUTLINE"></feComposite>
      <feMerge>
        <feMergeNode in="OUTLINE"></feMergeNode>
        <feMergeNode in="SourceGraphic"></feMergeNode>
      </feMerge>
      <feColorMatrix type="matrix"
        values="0   0   0   0   0                0   1   0   0   0                0   0   0   0   0                0   0   0   1   0 ">
      </feColorMatrix>
    </filter>
  </defs>
</svg>